<?xml version="1.0" encoding="utf-8"?>
<!-- Generator: Adobe Illustrator 21.1.0, SVG Export Plug-In . SVG Version: 6.00 Build 0)  -->
<svg  fill="#00aeef" version="1.1" id="Capa_1" xmlns="http://www.w3.org/2000/svg" xmlns:xlink="http://www.w3.org/1999/xlink" x="0px" y="0px"
	 viewBox="0 1500 2000 2000" style="enable-background:new 0 1500 2000 2000;" xml:space="preserve">
<g>
	<g>
		<path d="M1000,2333.3v-66.7H796.7c-16.7-113.3-113.3-200-230-200H233.3C103.3,2066.7,0,2170,0,2300v466.7h66.7V2300
			c0-93.3,73.3-166.7,166.7-166.7h33.3V2400h-33.3v-66.7h-66.7v1133.3c0,20,13.3,33.3,33.3,33.3h200h200c20,0,33.3-13.3,33.3-33.3
			V2333.3h-66.7v66.7h-33.3v-266.7h33.3c93.3,0,166.7,73.3,166.7,166.7c0,20,13.3,33.3,33.3,33.3H1000z M566.7,3433.3H433.3v-600
			H500v-66.7H300v66.7h66.7v600H233.3v-966.7h333.3V3433.3z M466.7,2400H333.3v-266.7h133.3V2400z"/>
		<path d="M200,1866.7c0,93.3,73.3,166.7,166.7,166.7h66.7c93.3,0,166.7-73.3,166.7-166.7V1800h66.7v-66.7H600v-66.7
			c0-93.3-73.3-166.7-166.7-166.7h-66.7c-93.3,0-166.7,73.3-166.7,166.7v66.7h-66.7v66.7H200V1866.7z M533.3,1866.7
			c0,56.7-43.3,100-100,100h-66.7c-56.7,0-100-43.3-100-100V1800h266.7V1866.7z M266.7,1666.7c0-56.7,43.3-100,100-100v100h66.7
			v-100c56.7,0,100,43.3,100,100v66.7H266.7V1666.7z"/>
		<rect x="300" y="2566.7" width="66.7" height="66.7"/>
		<rect x="433.3" y="2566.7" width="66.7" height="66.7"/>
		<path d="M1966.7,2166.7h-333.3h-200H1100c-20,0-33.3,13.3-33.3,33.3v700h-33.3h-200c-20,0-33.3,13.3-33.3,33.3v533.3
			c0,20,13.3,33.3,33.3,33.3h533.3h600c20,0,33.3-13.3,33.3-33.3v-533.3V2200C2000,2180,1986.7,2166.7,1966.7,2166.7z M1600,2233.3
			v200h-133.3v-200H1600z M1133.3,2233.3H1400v233.3c0,20,13.3,33.3,33.3,33.3h200c20,0,33.3-13.3,33.3-33.3v-233.3h266.7V2900h-200
			H1600h-233.3h-200h-33.3V2233.3z M1633.3,2966.7h66.7V3100h-66.7V2966.7z M1100,2966.7h33.3V3100h-66.7v-133.3H1100z
			 M866.7,2966.7H1000v166.7c0,20,13.3,33.3,33.3,33.3h133.3c20,0,33.3-13.3,33.3-33.3v-166.7h133.3v466.7H866.7V2966.7z
			 M1933.3,3433.3H1400v-466.7h166.7v166.7c0,20,13.3,33.3,33.3,33.3h133.3c20,0,33.3-13.3,33.3-33.3v-166.7h166.7V3433.3z"/>
		<rect x="766.7" y="2433.3" width="233.3" height="66.7"/>
		<rect x="933.3" y="3266.7" width="66.7" height="66.7"/>
		<rect x="1066.7" y="3266.7" width="66.7" height="66.7"/>
		<rect x="1466.7" y="3266.7" width="66.7" height="66.7"/>
		<rect x="1600" y="3266.7" width="66.7" height="66.7"/>
		<rect x="1233.3" y="2633.3" width="133.3" height="66.7"/>
		<rect x="1233.3" y="2766.7" width="266.7" height="66.7"/>
	</g>
</g>
</svg>
