<?xml version="1.0" encoding="utf-8"?>
<!-- Generator: Adobe Illustrator 21.1.0, SVG Export Plug-In . SVG Version: 6.00 Build 0)  -->
<svg version="1.1"  fill="#00aeef" id="Capa_1" xmlns="http://www.w3.org/2000/svg" xmlns:xlink="http://www.w3.org/1999/xlink" x="0px" y="0px"
	 viewBox="0 1500 2000 2000" style="enable-background:new 0 1500 2000 2000;" xml:space="preserve">
<g>
	<g>
		<path d="M1966.7,2166.7h-1000c-20,0-33.3,13.3-33.3,33.3v1266.7c0,20,13.3,33.3,33.3,33.3h1000c20,0,33.3-13.3,33.3-33.3V2200
			C2000,2180,1986.7,2166.7,1966.7,2166.7z M1933.3,2233.3v200H1000c0-20,0-53.3,0-66.7h400V2300h-400c0-6.7,0-66.7,0-66.7H1933.3z
			 M1000,3433.3c0,0,0-610,0-933.3h933.3v933.3H1000z"/>
		<rect x="1166.7" y="2566.7" width="100" height="66.7"/>
		<rect x="1333.3" y="2566.7" width="100" height="66.7"/>
		<rect x="1500" y="2566.7" width="100" height="66.7"/>
		<rect x="1666.7" y="2566.7" width="100" height="66.7"/>
		<rect x="1100" y="2733.3" width="133.3" height="66.7"/>
		<rect x="1300" y="2733.3" width="133.3" height="66.7"/>
		<rect x="1500" y="2733.3" width="133.3" height="66.7"/>
		<rect x="1700" y="2733.3" width="133.3" height="66.7"/>
		<rect x="1100" y="2866.7" width="133.3" height="66.7"/>
		<rect x="1300" y="2866.7" width="133.3" height="66.7"/>
		<rect x="1500" y="2866.7" width="133.3" height="66.7"/>
		<rect x="1700" y="2866.7" width="133.3" height="66.7"/>
		<rect x="1100" y="3000" width="133.3" height="66.7"/>
		<rect x="1300" y="3000" width="133.3" height="66.7"/>
		<rect x="1500" y="3000" width="133.3" height="66.7"/>
		<rect x="1700" y="3000" width="133.3" height="66.7"/>
		<rect x="1100" y="3133.3" width="133.3" height="66.7"/>
		<rect x="1300" y="3133.3" width="133.3" height="66.7"/>
		<rect x="1500" y="3133.3" width="133.3" height="66.7"/>
		<rect x="1700" y="3133.3" width="133.3" height="66.7"/>
		<rect x="1100" y="3266.7" width="133.3" height="66.7"/>
		<rect x="1300" y="3266.7" width="133.3" height="66.7"/>
		<rect x="1500" y="3266.7" width="133.3" height="66.7"/>
		<rect x="1700" y="3266.7" width="133.3" height="66.7"/>
		<path d="M66.7,1966.7h366.7c20,0,33.3-13.3,33.3-33.3v-366.7H1600v466.7h66.7v-500c0-20-13.3-33.3-33.3-33.3h-1200l0,0
			c-3.3,0-6.7,0-10,3.3H420c-3.3,3.3-6.7,3.3-10,6.7L10,1910c-3.3,3.3-3.3,6.7-6.7,10v3.3c0,3.3-3.3,6.7-3.3,10l0,0V2300h66.7
			C66.7,2300,66.7,2003.3,66.7,1966.7z M400,1900H113.3l143.3-143.3L400,1613.3V1900L400,1900z"/>
		<path d="M833.3,2933.3H466.7V2800v-166.7v-166.7c0-20-13.3-33.3-33.3-33.3h-400c-20,0-33.3,13.3-33.3,33.3v166.7V2800v166.7v166.7
			V3300v166.7c0,20,13.3,33.3,33.3,33.3h400h400c20,0,33.3-13.3,33.3-33.3V3300v-166.7v-166.7
			C866.7,2946.7,853.3,2933.3,833.3,2933.3z M66.7,3000H400v100H66.7V3000z M400,2933.3H66.7v-100H400V2933.3z M400,2766.7H66.7
			v-100H400V2766.7z M66.7,3166.7H400v100H66.7V3166.7z M466.7,3166.7H800v100H466.7V3166.7z M800,3100H466.7v-100H800V3100z
			 M66.7,2500H400v100H66.7V2500z M66.7,3333.3H400v100H66.7V3333.3z M800,3433.3H466.7v-100H800V3433.3z"/>
		<rect x="1266.7" y="1666.7" width="233.3" height="66.7"/>
		<rect x="900" y="1833.3" width="600" height="66.7"/>
		<rect x="1466.7" y="2300" width="100" height="66.7"/>
	</g>
</g>
</svg>
