<svg xmlns="http://www.w3.org/2000/svg" xmlns:xlink="http://www.w3.org/1999/xlink" width="12.062" height="15.063" viewBox="0 0 12.062 15.063">
  <metadata><?xpacket begin="﻿" id="W5M0MpCehiHzreSzNTczkc9d"?>
<x:xmpmeta xmlns:x="adobe:ns:meta/" x:xmptk="Adobe XMP Core 5.6-c138 79.159824, 2016/09/14-01:09:01        ">
   <rdf:RDF xmlns:rdf="http://www.w3.org/1999/02/22-rdf-syntax-ns#">
      <rdf:Description rdf:about=""/>
   </rdf:RDF>
</x:xmpmeta>
                                                                                                    
                                                                                                    
                                                                                                    
                                                                                                    
                                                                                                    
                                                                                                    
                                                                                                    
                                                                                                    
                                                                                                    
                                                                                                    
                                                                                                    
                                                                                                    
                                                                                                    
                                                                                                    
                                                                                                    
                                                                                                    
                                                                                                    
                                                                                                    
                                                                                                    
                                                                                                    
                           
<?xpacket end="w"?></metadata>
<defs>
    <style>
      .cls-1 {
        fill: #797979;
        fill-rule: evenodd;
        filter: url(#filter);
      }
    </style>
    <filter id="filter" x="683.969" y="22.969" width="12.062" height="15.063" filterUnits="userSpaceOnUse">
      <feFlood result="flood" flood-color="#fff"/>
      <feComposite result="composite" operator="in" in2="SourceGraphic"/>
      <feBlend result="blend" in2="SourceGraphic"/>
    </filter>
  </defs>
  <path class="cls-1" d="M696.019,29.93a10.4,10.4,0,0,1-3.871,7.316,3.769,3.769,0,0,1-2.153.778,3.107,3.107,0,0,1-1.089-.206c-1.835-.675-3.5-2.928-4.345-5.143-0.026-.065-0.047-0.125-0.073-0.189a7.836,7.836,0,0,1-.508-2.556,5.479,5.479,0,0,1,.181-1.414,0,0,0,0,1,0,0,0.087,0.087,0,0,1,.009-0.03,0.21,0.21,0,0,1,.2-0.142,0.222,0.222,0,0,1,.207.159c0,0.013,0,.026,0,0.039,0.521,3,2.506,7.116,4.939,7.6a2.462,2.462,0,0,0,.469.047,2.74,2.74,0,0,0,1.464-.456,8.4,8.4,0,0,0,2.816-3.629,14.779,14.779,0,0,0,1.137-3.556c0-.021,0-0.043.008-0.064,0,0,0-.008,0-0.008a0.213,0.213,0,0,1,.391-0.026,0.574,0.574,0,0,1,.022.09A5.177,5.177,0,0,1,696.019,29.93Zm-1.714-3.77a4.51,4.51,0,0,0-8.245-.883,4.35,4.35,0,0,0-.379.887,4.557,4.557,0,0,0-.194,1.312c0,2.49,2.024,7.349,4.508,7.349a2.168,2.168,0,0,0,1.025-.275,6.1,6.1,0,0,0,2.273-2.67,12.357,12.357,0,0,0,.737-1.789v0a9.051,9.051,0,0,0,.477-2.61A4.27,4.27,0,0,0,694.305,26.161ZM690,28.9c-0.056,0-.112,0-0.168-0.008a1.565,1.565,0,0,1-1.382-1.38c0-.056-0.009-0.113-0.009-0.173A1.561,1.561,0,1,1,690,28.9Z" transform="translate(-683.969 -22.969)"/>
</svg>
