<svg xmlns="http://www.w3.org/2000/svg" width="15.44" height="24.5" viewBox="0 0 15.44 24.5">
  <metadata><?xpacket begin="﻿" id="W5M0MpCehiHzreSzNTczkc9d"?>
<x:xmpmeta xmlns:x="adobe:ns:meta/" x:xmptk="Adobe XMP Core 5.6-c138 79.159824, 2016/09/14-01:09:01        ">
   <rdf:RDF xmlns:rdf="http://www.w3.org/1999/02/22-rdf-syntax-ns#">
      <rdf:Description rdf:about=""/>
   </rdf:RDF>
</x:xmpmeta>
                                                                                                    
                                                                                                    
                                                                                                    
                                                                                                    
                                                                                                    
                                                                                                    
                                                                                                    
                                                                                                    
                                                                                                    
                                                                                                    
                                                                                                    
                                                                                                    
                                                                                                    
                                                                                                    
                                                                                                    
                                                                                                    
                                                                                                    
                                                                                                    
                                                                                                    
                                                                                                    
                           
<?xpacket end="w"?></metadata>
<defs>
    <style>
      .cls-1 {
        fill: #fff;
        fill-rule: evenodd;
      }
    </style>
  </defs>
  <path class="cls-1" d="M1106.07,3209.25a0.881,0.881,0,0,0-.87.89v22.72a0.881,0.881,0,0,0,.87.89h13.69a0.881,0.881,0,0,0,.87-0.89v-22.72a0.881,0.881,0,0,0-.87-0.89h-13.69Zm6.84,23.78a1.42,1.42,0,1,1,1.39-1.42A1.406,1.406,0,0,1,1112.91,3233.03Zm5.13-4.46a0.881,0.881,0,0,1-.87.89h-8.52a0.881,0.881,0,0,1-.87-0.89v-15.46a0.881,0.881,0,0,1,.87-0.89h8.52a0.881,0.881,0,0,1,.87.89v15.46Z" transform="translate(-1105.19 -3209.25)"/>
</svg>
