<svg id="Группа_3" data-name="Группа 3" xmlns="http://www.w3.org/2000/svg" width="134.094" height="55.8" viewBox="0 0 134.094 55.8">
  <metadata><?xpacket begin="﻿" id="W5M0MpCehiHzreSzNTczkc9d"?>
<x:xmpmeta xmlns:x="adobe:ns:meta/" x:xmptk="Adobe XMP Core 5.6-c138 79.159824, 2016/09/14-01:09:01        ">
   <rdf:RDF xmlns:rdf="http://www.w3.org/1999/02/22-rdf-syntax-ns#">
      <rdf:Description rdf:about=""/>
   </rdf:RDF>
</x:xmpmeta>
                                                                                                    
                                                                                                    
                                                                                                    
                                                                                                    
                                                                                                    
                                                                                                    
                                                                                                    
                                                                                                    
                                                                                                    
                                                                                                    
                                                                                                    
                                                                                                    
                                                                                                    
                                                                                                    
                                                                                                    
                                                                                                    
                                                                                                    
                                                                                                    
                                                                                                    
                                                                                                    
                           
<?xpacket end="w"?></metadata>
<defs>
    <style>
      .cls-1 {
        fill: #00aeef;
      }

      .cls-2 {
        fill-rule: evenodd;
      }
    </style>
  </defs>
  <ellipse id="Эллипс_1_копия_5" data-name="Эллипс 1 копия 5" class="cls-1" cx="27.875" cy="27.9" rx="27.875" ry="27.9"/>
  <path id="Перевозка_СПб" data-name="Перевозка  СПб" class="cls-2" d="M40.995,16159.3V16149h6.3v10.3h2.27v-12.2H38.725v12.2h2.27Zm12.013-12.2v12.2h8.506v-1.9H55.235v-3.3H61.1v-2H55.261v-3.1h6.133v-1.9H53.008Zm13.752,12.2v-10.2h3.067a1.337,1.337,0,0,1,1.525,1.5q0,1.95-3.084,2.4l0.326,2.1c3.421-.6,5.131-2.1,5.131-4.6,0-2.3-1.251-3.4-3.752-3.4H64.49v12.2h2.27Zm9.34-12.2v12.2h8.506v-1.9H78.327v-3.3h5.868v-2H78.353v-3.1h6.133v-1.9H76.1Zm17.041,12.2q3.829,0,3.829-3.6a2.656,2.656,0,0,0-2.433-2.8,3.1,3.1,0,0,0,2.278-3c0-1.9-1.165-2.8-3.495-2.8H87.582v12.2h5.559Zm-3.289-1.9v-8.4h3.323a1.067,1.067,0,0,1,1.268,1.1c0,1.2-.942,2-2.827,2.3v1.5H92.3c1.5,0,2.253.6,2.253,1.9a1.4,1.4,0,0,1-1.508,1.6H89.852Zm11.85-4.2q0-4.2,3.794-4.2,3.7,0,3.7,4.2t-3.7,4.2q-3.8,0-3.794-4.2h0Zm3.794,6.2c4.038,0,6.056-2,6.056-6.2,0-4.1-2.018-6.2-6.056-6.2-4.1,0-6.15,2.1-6.15,6.2,0.183,4.2,2.233,6.2,6.15,6.2h0Zm8.647-9.8a10.8,10.8,0,0,1,3.6-.6c1.542,0,2.313.4,2.313,1.3a1.536,1.536,0,0,1-1.67,1.8h-2.955v2h2.98a1.526,1.526,0,0,1,1.645,1.8q0,1.5-2.313,1.5a10.8,10.8,0,0,1-3.6-.6v2.1a14.108,14.108,0,0,0,3.6.5c3.055,0,4.583-1.2,4.583-3.5a3.24,3.24,0,0,1,0-5.6q0-3.3-4.583-3.3a14.108,14.108,0,0,0-3.6.5v2.1Zm10.856-2.5v12.2h2.27v-12.2H125Zm10.382,12.2a46.845,46.845,0,0,0-3.525-5.6,6.369,6.369,0,0,0-1.4-.9,3.182,3.182,0,0,0,2.162-2.1q0.775-1.8,1.7-1.8H135v-1.8h-0.917a3.53,3.53,0,0,0-3.439,2.5c-0.706,1.6-1.458,2.5-2.257,2.5v1.6a1.561,1.561,0,0,1,1.255.7,32.975,32.975,0,0,1,2.882,4.9h2.861Zm7.67-9.9,1.927,4.6h-2.467l-0.779,2H145.8l1.4,3.3h2.441l-5.311-12.2h-2.441l-5.2,12.2h2.33Zm-89.036,32.4a12.548,12.548,0,0,1-5.139,1q-6.617,0-6.617-6.6c0-4.1,2.206-6.1,6.617-6.1a12.548,12.548,0,0,1,5.139,1v-3.1a15.161,15.161,0,0,0-5.4-.9c-6.6,0-9.894,3.1-9.894,9.1q0,9.6,9.894,9.6a15.161,15.161,0,0,0,5.4-.9v-3.1Zm7.933,3.8v-15.4h9.444v15.4h3.4v-18.3H58.543v18.3h3.4Zm31.459-6.9c0-4.4-2.167-6.5-6.5-6.5a5.132,5.132,0,0,0-4.433,2q0-4.2,4.51-4.2c2.681,0,4.677-.4,5.988-1.3v-2.8a11.286,11.286,0,0,1-5.949,1.4q-8.018,0-8.018,7.5v4.2c0,4.5,2.411,6.8,7.234,6.8,4.78,0,7.17-2.3,7.17-6.8v-0.3Zm-10.934.3c0-2.7,1.3-4.1,3.893-4.1,2.416,0,3.623,1.4,3.623,4.1s-1.251,4.1-3.752,4.1-3.765-1.4-3.765-4.1h0Z" transform="translate(-15.531 -16138.1)"/>
  <path id="рф" class="cls-2" d="M100.209,16167.4a4.992,4.992,0,0,1,1.336-.1,1.6,1.6,0,0,1,1.812,1.8q0,2.1-1.587,2.1a3.925,3.925,0,0,1-1.561-.3v-3.5Zm-1.7,7.7h1.7v-2.8a2.971,2.971,0,0,0,1.568.4q3.263,0,3.263-3.6c0-2.1-1.188-3.2-3.565-3.2a13.63,13.63,0,0,0-2.968.3v8.9Zm11.352,0h1.7v-2.4c2.7-.1,4.047-1.3,4.047-3.4,0-2.2-1.349-3.3-4.047-3.4v-2.4h-1.7v2.4c-2.7.1-4.048,1.3-4.048,3.4s1.349,3.3,4.048,3.4v2.4Zm-2.288-5.8c0-1.3.763-1.9,2.288-2.1v4.2q-2.287-.3-2.288-2.1h0Zm6.271,0q0,1.8-2.287,2.1v-4.2c1.524,0.2,2.287.8,2.287,2.1h0Z" transform="translate(-15.531 -16138.1)"/>
</svg>
