<svg id="лого" xmlns="http://www.w3.org/2000/svg" width="178.813" height="74.313" viewBox="0 0 178.813 74.313">
  <metadata><?xpacket begin="﻿" id="W5M0MpCehiHzreSzNTczkc9d"?>
<x:xmpmeta xmlns:x="adobe:ns:meta/" x:xmptk="Adobe XMP Core 5.6-c138 79.159824, 2016/09/14-01:09:01        ">
   <rdf:RDF xmlns:rdf="http://www.w3.org/1999/02/22-rdf-syntax-ns#">
      <rdf:Description rdf:about=""/>
   </rdf:RDF>
</x:xmpmeta>
                                                                                                    
                                                                                                    
                                                                                                    
                                                                                                    
                                                                                                    
                                                                                                    
                                                                                                    
                                                                                                    
                                                                                                    
                                                                                                    
                                                                                                    
                                                                                                    
                                                                                                    
                                                                                                    
                                                                                                    
                                                                                                    
                                                                                                    
                                                                                                    
                                                                                                    
                                                                                                    
                           
<?xpacket end="w"?></metadata>
<defs>
    <style>
      .cls-1 {
        fill: #00aeef;
      }

      .cls-1, .cls-2, .cls-3 {
        fill-rule: evenodd;
      }

      .cls-2 {
        fill: #f4f8f7;
      }

      .cls-3 {
        fill: #fff;
      }
    </style>
  </defs>
  <path id="Эллипс_1" data-name="Эллипс 1" class="cls-1" d="M37.281,0.844A37.156,37.156,0,1,1,.125,38,37.156,37.156,0,0,1,37.281.844Z" transform="translate(-0.125 -0.844)"/>
  <path id="Перевозка_СПб" data-name="Перевозка  СПб" class="cls-2" d="M34.069,29.105V15.4h8.395V29.105H45.49V12.773H31.043V29.105h3.027ZM50.086,12.773V29.105H61.428V26.478H53.056V22.2h7.824V19.489H53.09V15.377h8.178v-2.6H50.086ZM68.422,29.105V15.434h4.089a1.8,1.8,0,0,1,2.033,2.033q0,2.513-4.112,3.255l0.434,2.7q6.841-1.051,6.841-6.042,0-4.6-5-4.6H65.4V29.105h3.027ZM80.876,12.773V29.105H92.217V26.478H83.845V22.2h7.824V19.489H83.879V15.377h8.178v-2.6H80.876ZM103.6,29.105q5.1,0,5.105-4.831,0-3.106-3.243-3.712,3.037-1.2,3.038-3.986,0-3.8-4.66-3.8H96.185V29.105H103.6Zm-4.386-2.627V15.4h4.432q1.689,0,1.69,1.37,0,2.524-3.769,3.152v1.953h0.914q3,0,3,2.547a1.8,1.8,0,0,1-2.01,2.056h-4.26Zm15.8-5.585q0-5.608,5.06-5.608,4.934,0,4.934,5.608,0,5.7-4.934,5.7-5.06,0-5.06-5.7h0Zm5.06,8.326q8.075,0,8.075-8.257,0-8.3-8.075-8.3-8.2,0-8.2,8.3,0.366,8.257,8.2,8.258h0ZM131.6,16.085a14.411,14.411,0,0,1,4.8-.8q3.084,0,3.084,1.827,0,2.4-2.227,2.4h-3.94v2.627h3.974q2.193,0,2.193,2.4,0,2.056-3.084,2.056a14.406,14.406,0,0,1-4.8-.8v2.741a16.6,16.6,0,0,0,4.8.685q6.111,0,6.111-4.683a3.685,3.685,0,0,0-2.147-3.712,3.739,3.739,0,0,0,2.147-3.712q0-4.454-6.111-4.454a16.6,16.6,0,0,0-4.8.685v2.741Zm14.475-3.312V29.105H149.1V12.773h-3.026Zm13.842,16.332q-3.723-6.51-4.7-7.458a4.583,4.583,0,0,0-1.867-1.2,4.389,4.389,0,0,0,2.884-2.861q1.033-2.416,2.267-2.416h0.9v-2.4h-1.222q-3.176,0-4.585,3.335t-3.01,3.335v2.2a2.3,2.3,0,0,1,1.673.822,48.516,48.516,0,0,1,3.844,6.636h3.814Zm10.227-13.214,2.57,6.133h-3.29l-1.039,2.627h5.425l1.862,4.454h3.255l-7.081-16.332h-3.255l-6.933,16.332h3.106ZM51.429,59.052a17.075,17.075,0,0,1-6.853,1.371q-8.823,0-8.823-8.823,0-8.137,8.823-8.138a17.08,17.08,0,0,1,6.853,1.37V40.721a20.231,20.231,0,0,0-7.2-1.2q-13.192,0-13.191,12.078,0,12.763,13.191,12.763a20.226,20.226,0,0,0,7.2-1.2V59.052Zm10.577,5.14V43.633H74.6V64.191h4.54v-24.5H57.467v24.5h4.54Zm41.945-9.285q0-8.7-8.668-8.7a7.032,7.032,0,0,0-5.91,2.707q0-5.619,6.013-5.619,5.362,0,7.984-1.645v-3.82a14.636,14.636,0,0,1-7.932,1.867q-10.69,0-10.69,10.022v5.568q0,9.08,9.645,9.08,9.56,0,9.559-9.08V54.906Zm-14.579.377q0-5.379,5.191-5.379,4.831,0,4.831,5.379,0,5.483-5,5.482-5.02,0-5.02-5.482h0Z" transform="translate(-0.125 -0.844)"/>
  <path id="рф" class="cls-3" d="M113.021,39.843a10.245,10.245,0,0,1,1.782-.12,2.139,2.139,0,0,1,2.416,2.424Q117.219,45,115.1,45a4.627,4.627,0,0,1-2.082-.462V39.843Zm-2.27,10.3h2.27V46.456a5.305,5.305,0,0,0,2.09.428q4.352,0,4.352-4.72,0-4.274-4.754-4.274a19.689,19.689,0,0,0-3.958.368V50.139Zm15.136,0h2.262V46.953q5.4-.266,5.4-4.548,0-4.317-5.4-4.583V34.635h-2.262v3.2q-5.4.291-5.4,4.574,0,4.249,5.4,4.54v3.2Zm-3.049-7.786q0-2.433,3.049-2.715v5.5q-3.049-.291-3.049-2.784h0Zm8.36,0q0,2.536-3.049,2.792V39.629q3.049,0.257,3.049,2.724h0Z" transform="translate(-0.125 -0.844)"/>
</svg>
