<?xml version="1.0" encoding="utf-8"?>
<!-- Generator: Adobe Illustrator 21.1.0, SVG Export Plug-In . SVG Version: 6.00 Build 0)  -->
<svg version="1.1"  fill="#00aeef" id="Layer_1" xmlns="http://www.w3.org/2000/svg" xmlns:xlink="http://www.w3.org/1999/xlink" x="0px" y="0px"
	 viewBox="0 1500 2000 2000" style="enable-background:new 0 1500 2000 2000;" xml:space="preserve">
<g>
	<g>
		<path d="M1868.5,1500h-334c-72.5,0-131.5,59-131.5,131.5v334c0,72.5,59,131.5,131.5,131.5h334c72.5,0,131.5-59,131.5-131.5v-334
			C2000,1559,1941,1500,1868.5,1500z M1937.4,1965.6c0,38-30.9,68.9-68.9,68.9h-334c-38,0-68.9-30.9-68.9-68.9v-334
			c0-38,30.9-68.9,68.9-68.9h334c38,0,68.9,30.9,68.9,68.9V1965.6z"/>
	</g>
</g>
<g>
	<g>
		<path d="M1890.6,1676.2c-12.2-12.2-32.1-12.2-44.3,0l-178.3,178.3l-78.1-78.1c-12.2-12.2-32.1-12.2-44.3,0
			c-12.2,12.2-12.2,32.1,0,44.3l100.2,100.2c6.1,6.1,14.1,9.2,22.1,9.2s16-3.1,22.1-9.2l200.4-200.4
			C1902.8,1708.2,1902.8,1688.4,1890.6,1676.2z"/>
	</g>
</g>
<g>
	<g>
		<path d="M1868.5,2201.5h-334c-72.5,0-131.5,59-131.5,131.5v334c0,72.5,59,131.5,131.5,131.5h334c72.5,0,131.5-59,131.5-131.5v-334
			C2000,2260.5,1941,2201.5,1868.5,2201.5z M1937.4,2667c0,38-30.9,68.9-68.9,68.9h-334c-38,0-68.9-30.9-68.9-68.9v-334
			c0-38,30.9-68.9,68.9-68.9h334c38,0,68.9,30.9,68.9,68.9V2667z"/>
	</g>
</g>
<g>
	<g>
		<path d="M1868.5,2902.9h-334c-72.5,0-131.5,59-131.5,131.5v334c0,72.5,59,131.5,131.5,131.5h334c72.5,0,131.5-59,131.5-131.5v-334
			C2000,2961.9,1941,2902.9,1868.5,2902.9z M1937.4,3368.5c0,38-30.9,68.9-68.9,68.9h-334c-38,0-68.9-30.9-68.9-68.9v-334
			c0-38,30.9-68.9,68.9-68.9h334c38,0,68.9,30.9,68.9,68.9V3368.5z"/>
	</g>
</g>
<g>
	<g>
		<path d="M1890.6,3079.1c-12.2-12.2-32.1-12.2-44.3,0l-178.3,178.3l-78.1-78.1c-12.2-12.2-32.1-12.2-44.3,0
			c-12.2,12.2-12.2,32.1,0,44.3l100.2,100.2c6.1,6.1,14.1,9.2,22.1,9.2s16-3.1,22.1-9.2l200.4-200.4
			C1902.8,3111.2,1902.8,3091.3,1890.6,3079.1z"/>
	</g>
</g>
<g>
	<g>
		<path d="M699.4,1667H31.3C14,1667,0,1681,0,1698.3s14,31.3,31.3,31.3h668.1c17.3,0,31.3-14,31.3-31.3S716.7,1667,699.4,1667z"/>
	</g>
</g>
<g>
	<g>
		<path d="M1200.4,1667H833c-17.3,0-31.3,14-31.3,31.3s14,31.3,31.3,31.3h367.4c17.3,0,31.3-14,31.3-31.3S1217.7,1667,1200.4,1667z"
			/>
	</g>
</g>
<g>
	<g>
		<path d="M1200.4,1867.4h-133.6c-17.3,0-31.3,14-31.3,31.3s14,31.3,31.3,31.3h133.6c17.3,0,31.3-14,31.3-31.3
			S1217.7,1867.4,1200.4,1867.4z"/>
	</g>
</g>
<g>
	<g>
		<path d="M298.5,1867.4H31.3c-17.3,0-31.3,14-31.3,31.3s14,31.3,31.3,31.3h267.2c17.3,0,31.3-14,31.3-31.3
			S315.8,1867.4,298.5,1867.4z"/>
	</g>
</g>
<g>
	<g>
		<path d="M933.2,1867.4h-501c-17.3,0-31.3,14-31.3,31.3s14,31.3,31.3,31.3h501c17.3,0,31.3-14,31.3-31.3S950.5,1867.4,933.2,1867.4
			z"/>
	</g>
</g>
<g>
	<g>
		<path d="M699.4,2368.5H31.3c-17.3,0-31.3,14-31.3,31.3s14,31.3,31.3,31.3h668.1c17.3,0,31.3-14,31.3-31.3
			S716.7,2368.5,699.4,2368.5z"/>
	</g>
</g>
<g>
	<g>
		<path d="M1200.4,2368.5H833c-17.3,0-31.3,14-31.3,31.3s14,31.3,31.3,31.3h367.4c17.3,0,31.3-14,31.3-31.3
			S1217.7,2368.5,1200.4,2368.5z"/>
	</g>
</g>
<g>
	<g>
		<path d="M1200.4,2568.9h-133.6c-17.3,0-31.3,14-31.3,31.3s14,31.3,31.3,31.3h133.6c17.3,0,31.3-14,31.3-31.3
			S1217.7,2568.9,1200.4,2568.9z"/>
	</g>
</g>
<g>
	<g>
		<path d="M298.5,2568.9H31.3c-17.3,0-31.3,14-31.3,31.3s14,31.3,31.3,31.3h267.2c17.3,0,31.3-14,31.3-31.3
			S315.8,2568.9,298.5,2568.9z"/>
	</g>
</g>
<g>
	<g>
		<path d="M933.2,2568.9h-501c-17.3,0-31.3,14-31.3,31.3s14,31.3,31.3,31.3h501c17.3,0,31.3-14,31.3-31.3S950.5,2568.9,933.2,2568.9
			z"/>
	</g>
</g>
<g>
	<g>
		<path d="M699.4,3069.9H31.3c-17.3,0-31.3,14-31.3,31.3c0,17.3,14,31.3,31.3,31.3h668.1c17.3,0,31.3-14,31.3-31.3
			C730.7,3084,716.7,3069.9,699.4,3069.9z"/>
	</g>
</g>
<g>
	<g>
		<path d="M1200.4,3069.9H833c-17.3,0-31.3,14-31.3,31.3c0,17.3,14,31.3,31.3,31.3h367.4c17.3,0,31.3-14,31.3-31.3
			S1217.7,3069.9,1200.4,3069.9z"/>
	</g>
</g>
<g>
	<g>
		<path d="M1200.4,3270.4h-133.6c-17.3,0-31.3,14-31.3,31.3c0,17.3,14,31.3,31.3,31.3h133.6c17.3,0,31.3-14,31.3-31.3
			S1217.7,3270.4,1200.4,3270.4z"/>
	</g>
</g>
<g>
	<g>
		<path d="M298.5,3270.4H31.3c-17.3,0-31.3,14-31.3,31.3c0,17.3,14,31.3,31.3,31.3h267.2c17.3,0,31.3-14,31.3-31.3
			S315.8,3270.4,298.5,3270.4z"/>
	</g>
</g>
<g>
	<g>
		<path d="M933.2,3270.4h-501c-17.3,0-31.3,14-31.3,31.3c0,17.3,14,31.3,31.3,31.3h501c17.3,0,31.3-14,31.3-31.3
			S950.5,3270.4,933.2,3270.4z"/>
	</g>
</g>
<g>
	<g>
		<path d="M1823.8,2578.1l-78.1-78.1l78.1-78.1c12.2-12.2,12.2-32.1,0-44.3c-12.2-12.2-32.1-12.2-44.3,0l-78.1,78.1l-78.1-78.1
			c-12.2-12.2-32.1-12.2-44.3,0c-12.2,12.2-12.2,32.1,0,44.3l78.1,78.1l-78.1,78.1c-12.2,12.2-12.2,32.1,0,44.3
			c6.1,6.1,14.1,9.2,22.1,9.2s16-3.1,22.1-9.2l78.1-78.1l78.1,78.1c6.1,6.1,14.1,9.2,22.1,9.2s16-3.1,22.1-9.2
			C1836,2610.1,1836,2590.3,1823.8,2578.1z"/>
	</g>
</g>
</svg>
