<?xml version="1.0" encoding="utf-8"?>
<!-- Generator: Adobe Illustrator 21.1.0, SVG Export Plug-In . SVG Version: 6.00 Build 0)  -->
<svg version="1.1" fill="#00aeef" id="Capa_1" xmlns="http://www.w3.org/2000/svg" xmlns:xlink="http://www.w3.org/1999/xlink" x="0px" y="0px"
	 viewBox="16.6 1500 1966.7 2000" style="enable-background:new 16.6 1500 1966.7 2000;" xml:space="preserve">
<g>
	<path d="M1973.6,1509.8c-13-13-34.1-13-47.1,0l-123.6,123.6h-776.1L51.1,2617.1c-22.2,22.2-34.4,51.8-34.4,83.2
		c0,31.4,12.2,61,34.4,83.2l682.2,682.2c22.9,22.9,52.9,34.4,83,34.4c30.2,0,60.5-11.6,83.6-34.7l950.1-975.7v-809.1l123.6-123.6
		C1986.6,1543.9,1986.6,1522.8,1973.6,1509.8z M1783.4,2462.5l-930.9,956c-19.9,19.9-52.2,19.9-72.1,0L98.2,2736.3
		c-19.9-19.9-19.9-52.2,0.1-72.2l956.3-964.1h681.7l-161.1,161.1c-26.4-17.5-57.9-27.8-91.8-27.8c-91.9,0-166.7,74.8-166.7,166.7
		c0,91.9,74.8,166.7,166.7,166.7S1650,2091.9,1650,2000c0-33.9-10.3-65.4-27.8-91.8l161.1-161.1V2462.5z M1583.4,2000
		c0,55.1-44.9,100-100,100c-55.1,0-100-44.9-100-100c0-55.1,44.9-100,100-100c15.4,0,29.8,3.8,42.8,10l-66.4,66.4
		c-13,13-13,34.1,0,47.1c6.5,6.5,15,9.8,23.6,9.8c8.5,0,17.1-3.3,23.6-9.8l66.4-66.4C1579.6,1970.2,1583.4,1984.6,1583.4,2000z"/>
	<path d="M1135,2816l-353.6,353.5c-13,13-13,34.1,0,47.1c6.5,6.5,15,9.8,23.6,9.8c8.5,0,17.1-3.3,23.6-9.8l353.6-353.5
		c13-13,13-34.1,0-47.1C1169.1,2803,1148,2803,1135,2816z"/>
	<path d="M1252.7,2698c-6,6.3-9.7,15-9.7,23.7c0,8.7,3.6,17.4,9.7,23.7c6.3,6,15,9.7,23.7,9.7c9,0,17.6-3.6,23.7-9.7
		c6-6.3,9.7-14.6,9.7-23.7c0-9-3.7-17.6-9.7-23.7C1288,2685.7,1265,2685.7,1252.7,2698z"/>
	<path d="M970,2415.3c13-13,13-34.1,0-47.1c-13-13-34.1-13-47.1,0l-353.6,353.6c-13,13-13,34.1,0,47.1c6.5,6.5,15,9.8,23.6,9.8
		c8.5,0,17.1-3.3,23.6-9.8L970,2415.3z"/>
	<path d="M852.1,2816c6.5,6.5,15,9.8,23.6,9.8s17.1-3.3,23.6-9.8l235.7-235.7c13-13,13-34.1,0-47.1c-13-13-34.1-13-47.1,0
		l-235.7,235.7C839.1,2781.9,839.1,2803,852.1,2816z"/>
	<path d="M663.6,2957.4l-47.1,47.2c-13,13-13,34.1,0,47.1c6.5,6.5,15,9.8,23.6,9.8c8.5,0,17.1-3.3,23.6-9.8l47.1-47.2
		c13-13,13-34.1,0-47.1C697.7,2944.4,676.6,2944.4,663.6,2957.4z"/>
	<path d="M687.1,2321c-13-13-34.1-13-47.1,0l-353.5,353.5c-13,13-13,34.1,0,47.1c6.5,6.5,15,9.8,23.6,9.8s17.1-3.3,23.6-9.8
		l353.5-353.5C700.2,2355.1,700.2,2334,687.1,2321z"/>
	<path d="M781.3,2260c9,0,17.4-3.7,23.7-9.7c6-6.3,9.7-15,9.7-23.7c0-9-3.6-17.7-9.7-23.7c-12.3-12.3-35-12.3-47,0
		c-6.3,6.3-10,14.7-10,23.7c0,8.7,3.7,17.3,9.7,23.7C764,2256.3,772.7,2260,781.3,2260z"/>
	<path d="M475,2816c-6.3,6-9.7,14.7-9.7,23.7c0,8.7,3.3,17.4,9.7,23.3c6.3,6.3,14.6,10,23.7,10c8.7,0,17.3-3.6,23.7-10
		c6-6.3,9.7-14.6,9.7-23.3c0-9-3.7-17.3-10-23.7C509.7,2803.7,487.3,2803.7,475,2816z"/>
	<path d="M805,2910.4c6.3-6.3,9.7-15,9.7-23.7c0-8.7-3.3-17.3-9.7-23.7c-12.3-12.3-35-12.3-47.3,0c-6,6.3-9.7,15-9.7,23.7
		c0,8.7,3.7,17.4,9.7,23.7c6.3,6,15,9.7,23.7,9.7C790.3,2920,798.7,2916.4,805,2910.4z"/>
</g>
</svg>
